HIERARCHY
ROOT pelvis
{
  OFFSET 0 100 0
  CHANNELS 6 Xposition Yposition Zposition Zrotation Xrotation Yrotation
  JOINT pelvis_right_femur
  {
    OFFSET -10.78128 -3.44521 -0.5502486
    CHANNELS 3 Zrotation Xrotation Yrotation
    JOINT right_femur_tibia
    {
      OFFSET -0.8047443 -44.0398 -0.1307829
      CHANNELS 3 Zrotation Xrotation Yrotation
      JOINT right_tibia_foot
      {
        OFFSET 3.006224 -47.83518 -5
        CHANNELS 3 Zrotation Xrotation Yrotation
        End Site
        {
          OFFSET 0 -5 15
        }
      }
    }
  }
  JOINT pelvis_left_femur
  {
    OFFSET 10.78128 -3.44521 -0.5502486
    CHANNELS 3 Zrotation Xrotation Yrotation
    JOINT left_femur_tibia
    {
      OFFSET 0.8047443 -44.0398 -0.1307829
      CHANNELS 3 Zrotation Xrotation Yrotation
      JOINT left_tibia_foot
      {
        OFFSET -4.370144 -48.10324 -4.275266
        CHANNELS 3 Zrotation Xrotation Yrotation
        End Site
        {
          OFFSET 0 -5 15
        }
      }
    }
  }
  JOINT pelvis_spine1
  {
    OFFSET 0 6.468898 -3.129235
    CHANNELS 3 Zrotation Xrotation Yrotation
    JOINT spine1
    {
      OFFSET 0 23.15396 4.99043
      CHANNELS 3 Zrotation Xrotation Yrotation
      JOINT spine2
      {
        OFFSET 0 20.79997 -5.064912
        CHANNELS 3 Zrotation Xrotation Yrotation
        JOINT neck
        {
          OFFSET 0 14.38658 9.616178
          CHANNELS 3 Zrotation Xrotation Yrotation
          End Site
          {
            OFFSET 0 20 0
          }
        }
      }
      JOINT right_manubrium
      {
        OFFSET -5.722621 16.35077 3.967754
        CHANNELS 3 Zrotation Xrotation Yrotation
        JOINT right_clavicle
        {
          OFFSET -13.16364 1.694482 -4.693211
          CHANNELS 3 Zrotation Xrotation Yrotation
          JOINT right_humerus
          {
            OFFSET -28.5034 -0.3100689 -2.792744
            CHANNELS 3 Zrotation Xrotation Yrotation
            JOINT right_radius
            {
              OFFSET -25.15693 0.02248979 -1.271978
              CHANNELS 3 Zrotation Xrotation Yrotation
              End Site
              {
                OFFSET -15 0 0
              }
            }
          }
        }
      }
      JOINT left_manubrium
      {
        OFFSET 5.722621 16.35077 3.967754
        CHANNELS 3 Zrotation Xrotation Yrotation
        JOINT left_clavicle
        {
          OFFSET 13.16364 1.694482 -4.693211
          CHANNELS 3 Zrotation Xrotation Yrotation
          JOINT left_humerus
          {
            OFFSET 29.39168 -1.063119 -2.237045
            CHANNELS 3 Zrotation Xrotation Yrotation
            JOINT left_radius
            {
              OFFSET 24.59957 -0.9528479 0.9047498
              CHANNELS 3 Zrotation Xrotation Yrotation
              End Site
              {
                OFFSET 15 -0 -0
              }
            }
          }
        }
      }
    }
  }
}
MOTION
Frames: 15
Frame Time: 0.0416666666667
-1966.801 97.30199 1136.055 -7.28937 11.34445 -150.9785 2.600201 7.048768 -9.485833 -0 29.79395 -0 -17.58925 13.60734 5.383124 -2.214531 -4.939911 -4.183143 -0 16.19532 -0 8.070547 -6.145108 18.31046 -0.5273736 -3.020176 3.990665 -1.861811 17.16157 -4.300897 1.134318 23.85944 4.422226 3.541125 -17.51164 4.497938 -5.610594 -25.30155 11.74209 95.44072 10.52566 -11.91555 -0 0 13.62817 -30.68595 7.631761 14.61187 5.815694 -26.16795 -10.69443 -89.57395 1.968566 20.89435 0 0 -6.060194 24.54851 13.98947 -19.20021
-1970.745 97.90051 1130.377 -7.326582 11.49436 -150.8229 2.501721 3.82475 -10.23892 -0 29.14935 -0 -18.58415 15.39964 5.691149 -2.646189 -1.578094 -4.209715 -0 17.60429 -0 8.522286 -6.688511 17.77905 -0.4217907 -3.167768 3.512096 -1.70211 17.48005 -4.70136 1.07793 23.91431 4.46075 3.629155 -17.63957 4.439452 -5.891788 -24.84375 11.78703 96.60082 9.826112 -13.3003 -0 0 11.97479 -30.56446 7.51594 14.12952 5.994337 -27.10184 -11.17089 -89.00731 1.066375 19.505 0 0 -7.309308 26.09488 13.77383 -21.1479
-1974.601 98.54226 1124.624 -7.197196 11.52051 -150.7264 2.574116 0.5303853 -10.94575 -0 26.98909 -0 -19.67218 16.55516 6.023741 -2.895929 1.456472 -4.147239 -0 19.3167 -0 8.915711 -7.156594 17.20742 -0.2332295 -3.328088 3.113656 -1.455144 17.78263 -5.161638 1.00461 23.90366 4.465411 3.712187 -17.895 4.337782 -6.167012 -24.49368 11.86106 97.64012 9.208976 -14.74003 -0 0 10.45623 -30.24387 7.451785 13.56459 6.196951 -28.13416 -11.58467 -88.55699 0.2231408 18.27447 0 0 -8.768568 27.61448 13.5755 -23.04856
-1978.357 99.17237 1118.79 -6.953334 11.47939 -150.7179 2.797632 -2.480357 -11.5533 -0 23.75867 -0 -20.72674 17.13744 6.325428 -2.968354 3.933988 -3.973144 -0 21.40934 -0 9.181711 -7.464816 16.61154 0.01922378 -3.475393 2.818969 -1.165046 18.05588 -5.623919 0.9286538 23.84767 4.433248 3.781674 -18.20509 4.200615 -6.424424 -24.23902 11.95484 98.51448 8.677421 -16.1039 -0 0 9.142621 -29.82634 7.447533 12.98753 6.392266 -29.15955 -11.92244 -88.22037 -0.5276736 17.24476 0 0 -10.27592 28.979 13.38453 -24.74995
-1982.014 99.76912 1112.865 -6.662648 11.42809 -150.81 3.138599 -4.853112 -12.00538 -0 20.07384 -0 -21.5986 17.25671 6.532495 -2.886847 5.658338 -3.679537 -0 23.88758 -0 9.254974 -7.547405 16.01795 0.3043786 -3.58064 2.643836 -0.8837789 18.28088 -6.02416 0.8661338 23.77151 4.367528 3.829197 -18.48732 4.044026 -6.643627 -24.054 12.05549 99.177 8.249222 -17.25367 -0 0 8.100036 -29.42226 7.510609 12.47525 6.547601 -30.05286 -12.17013 -87.98625 -1.137175 16.44696 0 0 -11.64986 30.04049 13.20566 -26.07514
-1985.587 100.3377 1106.836 -6.380388 11.40078 -151.0046 3.561348 -6.311904 -12.25145 -0 16.51368 -0 -22.15533 16.99938 6.592248 -2.677384 6.485424 -3.282271 -0 26.63406 -0 9.095901 -7.37633 15.46805 0.5872579 -3.62073 2.597788 -0.6549236 18.43461 -6.308985 0.8296245 23.6949 4.276581 3.848495 -18.67918 3.888351 -6.798517 -23.91877 12.14979 99.57703 7.963923 -18.07292 -0 0 7.396704 -29.11059 7.644539 12.09148 6.639105 -30.69932 -12.30962 -87.84541 -1.541097 15.91496 0 0 -12.73278 30.66385 13.06381 -26.85916
-1989.097 100.8917 1100.702 -6.12949 11.39677 -151.2999 4.032779 -6.734931 -12.26402 -0 13.44838 -0 -22.32835 16.39298 6.485151 -2.358754 6.356468 -2.825169 -0 29.38356 -0 8.715105 -6.975352 15.01639 0.8378283 -3.588557 2.682349 -0.5006286 18.49731 -6.45136 0.8233274 23.62523 4.171706 3.837695 -18.76148 3.752262 -6.866914 -23.83596 12.22742 99.67378 7.869851 -18.49546 -0 0 7.094988 -28.914 7.841417 11.87002 6.660356 -31.0299 -12.3233 -87.79764 -1.680134 15.68861 0 0 -13.42863 30.77573 12.99351 -27.00803
-1992.56 101.433 1094.478 -5.900258 11.38646 -151.6934 4.520796 -6.175439 -12.05025 -0 10.99207 -0 -22.13483 15.41996 6.234967 -1.943932 5.316748 -2.371254 -0 31.76531 -0 8.177441 -6.416175 14.71989 1.03614 -3.496154 2.888843 -0.4191438 18.46 -6.455148 0.8420612 23.55787 4.064773 3.799956 -18.75982 3.648304 -6.839436 -23.832 12.28268 99.45197 8.001668 -18.51445 -0 0 7.234864 -28.80277 8.078584 11.81054 6.622787 -31.03808 -12.20233 -87.85285 -1.524456 15.80443 0 0 -13.71477 30.39064 13.02071 -26.53321
-1995.985 101.9409 1088.197 -5.668183 11.33161 -152.1817 4.99255 -4.811923 -11.64821 -0 9.089216 -0 -21.65829 14.06499 5.898448 -1.449024 3.500948 -1.982675 -0 33.41099 -0 7.577835 -5.793866 14.62137 1.172467 -3.368015 3.198563 -0.393805 18.32724 -6.345793 0.8750249 23.48307 3.96618 3.74197 -18.7232 3.581892 -6.721636 -23.94143 12.31431 98.92816 8.363759 -18.16816 -0 0 7.819049 -28.72373 8.324357 11.88876 6.547301 -30.76769 -11.95241 -88.02549 -1.085779 16.27893 0 0 -13.62411 29.59524 13.15107 -25.53614
-1999.375 102.3745 1081.905 -5.413936 11.20521 -152.7577 5.416566 -2.870626 -11.11196 -0 7.637572 -0 -21.007 12.35562 5.542329 -0.8996957 1.095979 -1.702678 -0 34.06449 -0 7.00772 -5.196538 14.73747 1.244828 -3.230458 3.585708 -0.4051206 18.11463 -6.15594 0.911122 23.39348 3.883516 3.671604 -18.69757 3.552848 -6.530079 -24.1874 12.32422 98.14643 8.92774 -17.51731 -0 0 8.808396 -28.63135 8.548161 12.07171 6.454213 -30.28627 -11.59377 -88.32622 -0.4128534 17.09667 0 0 -13.21692 28.50976 13.37067 -24.16338
-2002.726 102.6838 1075.648 -5.132702 11.00028 -153.4095 5.767406 -0.5680265 -10.49692 -0 6.559609 -0 -20.27921 10.37124 5.222677 -0.3296451 -1.696532 -1.54925 -0 33.63536 -0 6.533219 -4.68568 15.05694 1.256665 -3.104093 4.021569 -0.4380998 17.8441 -5.915397 0.9423832 23.28758 3.821015 3.596108 -18.7108 3.557398 -6.286695 -24.57162 12.31615 97.16859 9.641265 -16.62902 -0 0 10.12884 -28.50292 8.727934 12.32815 6.357771 -29.66345 -11.1565 -88.75544 0.4225504 18.20964 0 0 -12.56049 27.25506 13.65407 -22.56627
-2006.034 102.8222 1069.471 -4.832726 10.728 -154.1216 6.029214 1.913436 -9.851009 -0 5.81484 -0 -19.54699 8.226717 4.974474 0.2256655 -4.685108 -1.519163 -0 32.19094 -0 6.189229 -4.291666 15.54678 1.215224 -3.001248 4.478162 -0.4837407 17.53927 -5.647613 0.9648066 23.16924 3.779805 3.521259 -18.77097 3.589816 -6.014067 -25.0749 12.29456 96.06407 10.44125 -15.57033 -0 0 11.68449 -28.33778 8.852536 12.63231 6.265683 -28.96024 -10.67439 -89.30028 1.341662 19.54537 0 0 -11.7207 25.93505 13.9727 -20.87783
-2009.297 102.7561 1063.409 -4.52968 10.41137 -154.8761 6.19588 4.426317 -9.211459 -0 5.389192 -0 -18.85433 6.051107 4.810389 0.7341295 -7.697823 -1.596111 -0 29.91686 -0 5.982733 -4.019706 16.16055 1.130064 -2.926471 4.930095 -0.5375916 17.22204 -5.370092 0.9777644 23.0457 3.758813 3.451196 -18.87111 3.643811 -5.732202 -25.66202 12.26378 94.90263 11.26566 -14.40745 -0 0 13.36948 -28.14948 8.92077 12.96335 6.180904 -28.22597 -10.17993 -89.93408 2.272037 21.01602 0 0 -10.76073 24.63074 14.30024 -19.20365
-2012.513 102.4702 1057.481 -4.242224 10.08007 -155.6543 6.268194 6.850255 -8.605499 -0 5.289111 -0 -18.22196 3.975442 4.724768 1.168491 -10.58063 -1.757929 -0 27.07369 -0 5.899262 -3.859145 16.84513 1.011458 -2.878126 5.354618 -0.598192 16.91089 -5.095829 0.9831034 22.92606 3.755885 3.38861 -18.99428 3.713646 -5.457048 -26.28634 12.22727 93.7512 12.06026 -13.20657 -0 0 15.07501 -27.95907 8.93891 13.30394 6.103443 -27.49866 -9.70201 -90.61704 3.155205 22.52438 0 0 -9.741203 23.40093 14.61395 -17.6216
-2015.686 101.9708 1051.696 -3.989979 9.767811 -156.437 6.250141 9.085568 -8.053467 -0 5.543536 -0 -17.65473 2.129697 4.69986 1.505713 -13.19312 -1.981003 -0 23.95939 -0 5.910315 -3.791331 17.54547 0.8690041 -2.850296 5.730939 -0.6663991 16.62098 -4.834284 0.9843288 22.82061 3.768634 3.33512 -19.11706 3.794702 -5.200834 -26.89422 12.1873 92.67357 12.77985 -12.03329 -0 0 16.69326 -27.7921 8.917632 13.63972 6.031519 -26.80666 -9.265877 -91.29841 3.948039 23.96825 0 0 -8.718587 22.28713 14.89376 -16.18753
